<?xml version="1.0" standalone="no"?>
<!DOCTYPE svg PUBLIC "-//W3C//DTD SVG 20010904//EN"
 "http://www.w3.org/TR/2001/REC-SVG-20010904/DTD/svg10.dtd">
<svg version="1.0" xmlns="http://www.w3.org/2000/svg"
 width="500.000000pt" height="500.000000pt" viewBox="0 0 500.000000 500.000000"
 preserveAspectRatio="xMidYMid meet">

<g transform="translate(0.000000,500.000000) scale(0.100000,-0.100000)"
fill="#000000" stroke="none">
<path d="M2365 4734 c-16 -2 -72 -9 -123 -15 -490 -57 -952 -281 -1307 -634
-62 -61 -120 -123 -129 -138 l-18 -26 418 -712 c327 -557 415 -715 407 -728
-5 -9 -108 -184 -228 -389 -120 -205 -221 -369 -225 -365 -4 4 -186 309 -405
678 -219 369 -399 671 -400 673 -6 7 -47 -189 -61 -287 -18 -141 -18 -440 1
-588 50 -390 218 -785 465 -1098 90 -113 288 -308 400 -392 l95 -71 17 27 c57
92 1068 1822 1068 1829 0 4 -173 302 -384 662 l-384 655 82 53 c282 183 653
275 984 243 223 -21 375 -63 568 -155 198 -95 394 -244 524 -398 l61 -73 -640
-3 c-353 -1 -641 -6 -641 -10 0 -4 80 -145 178 -312 l178 -305 928 -3 927 -2
-7 37 c-3 21 -21 97 -39 168 -212 835 -883 1471 -1730 1639 -194 38 -445 55
-580 40z"/>
<path d="M2799 2028 c-40 -68 -121 -206 -181 -306 -59 -101 -108 -188 -108
-193 0 -5 265 -10 640 -11 l640 -3 -73 -85 c-357 -413 -933 -618 -1475 -524
-46 8 -87 12 -91 9 -9 -5 -306 -509 -316 -536 -5 -12 10 -20 72 -37 679 -186
1380 -54 1947 366 119 88 337 303 423 417 189 251 318 511 394 793 15 58 49
215 49 230 0 1 -416 2 -925 2 l-924 0 -72 -122z"/>
</g>
</svg>
